<svg xmlns="http://www.w3.org/2000/svg" width="210mm" height="297mm" viewBox="0 0 210 297">
<rect width="100%" height="100%" fill="#fff"/>
<g transform="translate(8.0,10)">
 <rect x="0.25" y="0.25" width="62.5" height="87.5"
       rx="3" fill="#f6f2e8" stroke="#202020" stroke-width="0.5"/>
 <rect x="0.25" y="0.25" width="62.5" height="11" rx="3" fill="#56785b"/>
 <rect x="0.25" y="8" width="62.5" height="3" fill="#56785b"/>
 <text x="31.5" y="7.2" text-anchor="middle"
       font-family="DejaVu Sans" font-size="3" font-weight="700" fill="#fff">KARAKTÄR</text>
 <text x="31.5" y="18" text-anchor="middle"
       font-family="DejaVu Sans" font-size="5" font-weight="700" fill="#202020">Bäraren</text>
 <circle cx="31.5" cy="34" r="8" fill="#56785b" opacity="0.18"/>
 <text x="31.5" y="37" text-anchor="middle"
       font-family="DejaVu Sans" font-size="9" font-weight="700" fill="#56785b">B</text>
 <text x="5" y="48.0" font-family="DejaVu Sans"
       font-size="2.9" font-weight="700" fill="#202020">Hälsa: 3</text>
 <text x="5" y="52.2" font-family="DejaVu Sans"
       font-size="2.9" font-weight="700" fill="#202020">Ryggsäck: 6 platser</text>
 <text x="31.5" y="61.0" text-anchor="middle"
       font-family="DejaVu Sans" font-size="3" fill="#202020">Du har ryggsäckskapacitet 6 i stället</text>
 <text x="31.5" y="65.1" text-anchor="middle"
       font-family="DejaVu Sans" font-size="3" fill="#202020">för 4.</text>
 <text x="31.5" y="84.5" text-anchor="middle"
       font-family="DejaVu Sans" font-size="2" fill="#666">Karaktärsförmåga</text>
</g>
<path d="M5.5,10 H8.0 M8.0,7.5 V10" stroke="#333" stroke-width="0.2"/>
<path d="M71.0,10 H73.5 M71.0,7.5 V10" stroke="#333" stroke-width="0.2"/>
<path d="M5.5,98 H8.0 M8.0,98 V100.5" stroke="#333" stroke-width="0.2"/>
<path d="M71.0,98 H73.5 M71.0,98 V100.5" stroke="#333" stroke-width="0.2"/>
<g transform="translate(74.5,10)">
 <rect x="0.25" y="0.25" width="62.5" height="87.5"
       rx="3" fill="#f6f2e8" stroke="#202020" stroke-width="0.5"/>
 <rect x="0.25" y="0.25" width="62.5" height="11" rx="3" fill="#56785b"/>
 <rect x="0.25" y="8" width="62.5" height="3" fill="#56785b"/>
 <text x="31.5" y="7.2" text-anchor="middle"
       font-family="DejaVu Sans" font-size="3" font-weight="700" fill="#fff">KARAKTÄR</text>
 <text x="31.5" y="18" text-anchor="middle"
       font-family="DejaVu Sans" font-size="5" font-weight="700" fill="#202020">Klättraren</text>
 <circle cx="31.5" cy="34" r="8" fill="#56785b" opacity="0.18"/>
 <text x="31.5" y="37" text-anchor="middle"
       font-family="DejaVu Sans" font-size="9" font-weight="700" fill="#56785b">C</text>
 <text x="5" y="48.0" font-family="DejaVu Sans"
       font-size="2.9" font-weight="700" fill="#202020">Hälsa: 3</text>
 <text x="5" y="52.2" font-family="DejaVu Sans"
       font-size="2.9" font-weight="700" fill="#202020">Ryggsäck: 4 platser</text>
 <text x="31.5" y="61.0" text-anchor="middle"
       font-family="DejaVu Sans" font-size="3" fill="#202020">En gång per spel får du ignorera all</text>
 <text x="31.5" y="65.1" text-anchor="middle"
       font-family="DejaVu Sans" font-size="3" fill="#202020">skada från en färdhändelse.</text>
 <text x="31.5" y="84.5" text-anchor="middle"
       font-family="DejaVu Sans" font-size="2" fill="#666">Karaktärsförmåga</text>
</g>
<path d="M72.0,10 H74.5 M74.5,7.5 V10" stroke="#333" stroke-width="0.2"/>
<path d="M137.5,10 H140.0 M137.5,7.5 V10" stroke="#333" stroke-width="0.2"/>
<path d="M72.0,98 H74.5 M74.5,98 V100.5" stroke="#333" stroke-width="0.2"/>
<path d="M137.5,98 H140.0 M137.5,98 V100.5" stroke="#333" stroke-width="0.2"/>
<g transform="translate(141.0,10)">
 <rect x="0.25" y="0.25" width="62.5" height="87.5"
       rx="3" fill="#f6f2e8" stroke="#202020" stroke-width="0.5"/>
 <rect x="0.25" y="0.25" width="62.5" height="11" rx="3" fill="#56785b"/>
 <rect x="0.25" y="8" width="62.5" height="3" fill="#56785b"/>
 <text x="31.5" y="7.2" text-anchor="middle"
       font-family="DejaVu Sans" font-size="3" font-weight="700" fill="#fff">KARAKTÄR</text>
 <text x="31.5" y="18" text-anchor="middle"
       font-family="DejaVu Sans" font-size="5" font-weight="700" fill="#202020">Kuriren</text>
 <circle cx="31.5" cy="34" r="8" fill="#56785b" opacity="0.18"/>
 <text x="31.5" y="37" text-anchor="middle"
       font-family="DejaVu Sans" font-size="9" font-weight="700" fill="#56785b">K</text>
 <text x="5" y="48.0" font-family="DejaVu Sans"
       font-size="2.9" font-weight="700" fill="#202020">Hälsa: 3</text>
 <text x="5" y="52.2" font-family="DejaVu Sans"
       font-size="2.9" font-weight="700" fill="#202020">Ryggsäck: 5 platser</text>
 <text x="31.5" y="61.0" text-anchor="middle"
       font-family="DejaVu Sans" font-size="3" fill="#202020">En gång under din aktivering får du</text>
 <text x="31.5" y="65.1" text-anchor="middle"
       font-family="DejaVu Sans" font-size="3" fill="#202020">överföra valfritt antal föremål till</text>
 <text x="31.5" y="69.2" text-anchor="middle"
       font-family="DejaVu Sans" font-size="3" fill="#202020">en karaktär på samma plats utan att</text>
 <text x="31.5" y="73.3" text-anchor="middle"
       font-family="DejaVu Sans" font-size="3" fill="#202020">använda en handling.</text>
 <text x="31.5" y="84.5" text-anchor="middle"
       font-family="DejaVu Sans" font-size="2" fill="#666">Karaktärsförmåga</text>
</g>
<path d="M138.5,10 H141.0 M141.0,7.5 V10" stroke="#333" stroke-width="0.2"/>
<path d="M204.0,10 H206.5 M204.0,7.5 V10" stroke="#333" stroke-width="0.2"/>
<path d="M138.5,98 H141.0 M141.0,98 V100.5" stroke="#333" stroke-width="0.2"/>
<path d="M204.0,98 H206.5 M204.0,98 V100.5" stroke="#333" stroke-width="0.2"/>
<g transform="translate(8.0,102)">
 <rect x="0.25" y="0.25" width="62.5" height="87.5"
       rx="3" fill="#f6f2e8" stroke="#202020" stroke-width="0.5"/>
 <rect x="0.25" y="0.25" width="62.5" height="11" rx="3" fill="#56785b"/>
 <rect x="0.25" y="8" width="62.5" height="3" fill="#56785b"/>
 <text x="31.5" y="7.2" text-anchor="middle"
       font-family="DejaVu Sans" font-size="3" font-weight="700" fill="#fff">KARAKTÄR</text>
 <text x="31.5" y="18" text-anchor="middle"
       font-family="DejaVu Sans" font-size="5" font-weight="700" fill="#202020">Ingenjören</text>
 <circle cx="31.5" cy="34" r="8" fill="#56785b" opacity="0.18"/>
 <text x="31.5" y="37" text-anchor="middle"
       font-family="DejaVu Sans" font-size="9" font-weight="700" fill="#56785b">I</text>
 <text x="5" y="48.0" font-family="DejaVu Sans"
       font-size="2.9" font-weight="700" fill="#202020">Hälsa: 3</text>
 <text x="5" y="52.2" font-family="DejaVu Sans"
       font-size="2.9" font-weight="700" fill="#202020">Ryggsäck: 4 platser</text>
 <text x="31.5" y="61.0" text-anchor="middle"
       font-family="DejaVu Sans" font-size="3" fill="#202020">Du får ta bort ett Hinder utan att</text>
 <text x="31.5" y="65.1" text-anchor="middle"
       font-family="DejaVu Sans" font-size="3" fill="#202020">använda en handling. Du måste</text>
 <text x="31.5" y="69.2" text-anchor="middle"
       font-family="DejaVu Sans" font-size="3" fill="#202020">fortfarande kassera 1 verktyg.</text>
 <text x="31.5" y="84.5" text-anchor="middle"
       font-family="DejaVu Sans" font-size="2" fill="#666">Karaktärsförmåga</text>
</g>
<path d="M5.5,102 H8.0 M8.0,99.5 V102" stroke="#333" stroke-width="0.2"/>
<path d="M71.0,102 H73.5 M71.0,99.5 V102" stroke="#333" stroke-width="0.2"/>
<path d="M5.5,190 H8.0 M8.0,190 V192.5" stroke="#333" stroke-width="0.2"/>
<path d="M71.0,190 H73.5 M71.0,190 V192.5" stroke="#333" stroke-width="0.2"/>
<g transform="translate(74.5,102)">
 <rect x="0.25" y="0.25" width="62.5" height="87.5"
       rx="3" fill="#f6f2e8" stroke="#202020" stroke-width="0.5"/>
 <rect x="0.25" y="0.25" width="62.5" height="11" rx="3" fill="#56785b"/>
 <rect x="0.25" y="8" width="62.5" height="3" fill="#56785b"/>
 <text x="31.5" y="7.2" text-anchor="middle"
       font-family="DejaVu Sans" font-size="3" font-weight="700" fill="#fff">KARAKTÄR</text>
 <text x="31.5" y="18" text-anchor="middle"
       font-family="DejaVu Sans" font-size="5" font-weight="700" fill="#202020">Läkaren</text>
 <circle cx="31.5" cy="34" r="8" fill="#56785b" opacity="0.18"/>
 <text x="31.5" y="37" text-anchor="middle"
       font-family="DejaVu Sans" font-size="9" font-weight="700" fill="#56785b">L</text>
 <text x="5" y="48.0" font-family="DejaVu Sans"
       font-size="2.9" font-weight="700" fill="#202020">Hälsa: 3</text>
 <text x="5" y="52.2" font-family="DejaVu Sans"
       font-size="2.9" font-weight="700" fill="#202020">Ryggsäck: 4 platser</text>
 <text x="31.5" y="61.0" text-anchor="middle"
       font-family="DejaVu Sans" font-size="3" fill="#202020">När du använder medicinsk utrustning</text>
 <text x="31.5" y="65.1" text-anchor="middle"
       font-family="DejaVu Sans" font-size="3" fill="#202020">läker den 1 extra hälsa.</text>
 <text x="31.5" y="84.5" text-anchor="middle"
       font-family="DejaVu Sans" font-size="2" fill="#666">Karaktärsförmåga</text>
</g>
<path d="M72.0,102 H74.5 M74.5,99.5 V102" stroke="#333" stroke-width="0.2"/>
<path d="M137.5,102 H140.0 M137.5,99.5 V102" stroke="#333" stroke-width="0.2"/>
<path d="M72.0,190 H74.5 M74.5,190 V192.5" stroke="#333" stroke-width="0.2"/>
<path d="M137.5,190 H140.0 M137.5,190 V192.5" stroke="#333" stroke-width="0.2"/>
<g transform="translate(141.0,102)">
 <rect x="0.25" y="0.25" width="62.5" height="87.5"
       rx="3" fill="#f6f2e8" stroke="#202020" stroke-width="0.5"/>
 <rect x="0.25" y="0.25" width="62.5" height="11" rx="3" fill="#56785b"/>
 <rect x="0.25" y="8" width="62.5" height="3" fill="#56785b"/>
 <text x="31.5" y="7.2" text-anchor="middle"
       font-family="DejaVu Sans" font-size="3" font-weight="700" fill="#fff">KARAKTÄR</text>
 <text x="31.5" y="18" text-anchor="middle"
       font-family="DejaVu Sans" font-size="5" font-weight="700" fill="#202020">Spejaren</text>
 <circle cx="31.5" cy="34" r="8" fill="#56785b" opacity="0.18"/>
 <text x="31.5" y="37" text-anchor="middle"
       font-family="DejaVu Sans" font-size="9" font-weight="700" fill="#56785b">S</text>
 <text x="5" y="48.0" font-family="DejaVu Sans"
       font-size="2.9" font-weight="700" fill="#202020">Hälsa: 3</text>
 <text x="5" y="52.2" font-family="DejaVu Sans"
       font-size="2.9" font-weight="700" fill="#202020">Ryggsäck: 4 platser</text>
 <text x="31.5" y="61.0" text-anchor="middle"
       font-family="DejaVu Sans" font-size="3" fill="#202020">En gång per runda får du titta på en</text>
 <text x="31.5" y="65.1" text-anchor="middle"
       font-family="DejaVu Sans" font-size="3" fill="#202020">dold vägmarkör vid din plats och</text>
 <text x="31.5" y="69.2" text-anchor="middle"
       font-family="DejaVu Sans" font-size="3" fill="#202020">lägga tillbaka den dold.</text>
 <text x="31.5" y="84.5" text-anchor="middle"
       font-family="DejaVu Sans" font-size="2" fill="#666">Karaktärsförmåga</text>
</g>
<path d="M138.5,102 H141.0 M141.0,99.5 V102" stroke="#333" stroke-width="0.2"/>
<path d="M204.0,102 H206.5 M204.0,99.5 V102" stroke="#333" stroke-width="0.2"/>
<path d="M138.5,190 H141.0 M141.0,190 V192.5" stroke="#333" stroke-width="0.2"/>
<path d="M204.0,190 H206.5 M204.0,190 V192.5" stroke="#333" stroke-width="0.2"/>
<g transform="translate(8.0,194)">
 <rect x="0.25" y="0.25" width="62.5" height="87.5"
       rx="3" fill="#f6f2e8" stroke="#202020" stroke-width="0.5"/>
 <rect x="0.25" y="0.25" width="62.5" height="11" rx="3" fill="#56785b"/>
 <rect x="0.25" y="8" width="62.5" height="3" fill="#56785b"/>
 <text x="31.5" y="7.2" text-anchor="middle"
       font-family="DejaVu Sans" font-size="3" font-weight="700" fill="#fff">KARAKTÄR</text>
 <text x="31.5" y="18" text-anchor="middle"
       font-family="DejaVu Sans" font-size="5" font-weight="700" fill="#202020">Teknikern</text>
 <circle cx="31.5" cy="34" r="8" fill="#56785b" opacity="0.18"/>
 <text x="31.5" y="37" text-anchor="middle"
       font-family="DejaVu Sans" font-size="9" font-weight="700" fill="#56785b">T</text>
 <text x="5" y="48.0" font-family="DejaVu Sans"
       font-size="2.9" font-weight="700" fill="#202020">Hälsa: 3</text>
 <text x="5" y="52.2" font-family="DejaVu Sans"
       font-size="2.9" font-weight="700" fill="#202020">Ryggsäck: 4 platser</text>
 <text x="31.5" y="61.0" text-anchor="middle"
       font-family="DejaVu Sans" font-size="3" fill="#202020">En gång per runda får du använda en</text>
 <text x="31.5" y="65.1" text-anchor="middle"
       font-family="DejaVu Sans" font-size="3" fill="#202020">engångsutrustning som normalt kräver</text>
 <text x="31.5" y="69.2" text-anchor="middle"
       font-family="DejaVu Sans" font-size="3" fill="#202020">1 handling utan att använda en</text>
 <text x="31.5" y="73.3" text-anchor="middle"
       font-family="DejaVu Sans" font-size="3" fill="#202020">handling.</text>
 <text x="31.5" y="84.5" text-anchor="middle"
       font-family="DejaVu Sans" font-size="2" fill="#666">Karaktärsförmåga</text>
</g>
<path d="M5.5,194 H8.0 M8.0,191.5 V194" stroke="#333" stroke-width="0.2"/>
<path d="M71.0,194 H73.5 M71.0,191.5 V194" stroke="#333" stroke-width="0.2"/>
<path d="M5.5,282 H8.0 M8.0,282 V284.5" stroke="#333" stroke-width="0.2"/>
<path d="M71.0,282 H73.5 M71.0,282 V284.5" stroke="#333" stroke-width="0.2"/>
<g transform="translate(74.5,194)">
 <rect x="0.25" y="0.25" width="62.5" height="87.5"
       rx="3" fill="#f6f2e8" stroke="#202020" stroke-width="0.5"/>
 <rect x="0.25" y="0.25" width="62.5" height="11" rx="3" fill="#56785b"/>
 <rect x="0.25" y="8" width="62.5" height="3" fill="#56785b"/>
 <text x="31.5" y="7.2" text-anchor="middle"
       font-family="DejaVu Sans" font-size="3" font-weight="700" fill="#fff">KARAKTÄR</text>
 <text x="31.5" y="18" text-anchor="middle"
       font-family="DejaVu Sans" font-size="5" font-weight="700" fill="#202020">Veteranen</text>
 <circle cx="31.5" cy="34" r="8" fill="#56785b" opacity="0.18"/>
 <text x="31.5" y="37" text-anchor="middle"
       font-family="DejaVu Sans" font-size="9" font-weight="700" fill="#56785b">V</text>
 <text x="5" y="48.0" font-family="DejaVu Sans"
       font-size="2.9" font-weight="700" fill="#202020">Hälsa: 4</text>
 <text x="5" y="52.2" font-family="DejaVu Sans"
       font-size="2.9" font-weight="700" fill="#202020">Ryggsäck: 3 platser</text>
 <text x="31.5" y="61.0" text-anchor="middle"
       font-family="DejaVu Sans" font-size="3" fill="#202020">Du har 4 hälsa men endast 3</text>
 <text x="31.5" y="65.1" text-anchor="middle"
       font-family="DejaVu Sans" font-size="3" fill="#202020">ryggsäcksplatser.</text>
 <text x="31.5" y="84.5" text-anchor="middle"
       font-family="DejaVu Sans" font-size="2" fill="#666">Karaktärsförmåga</text>
</g>
<path d="M72.0,194 H74.5 M74.5,191.5 V194" stroke="#333" stroke-width="0.2"/>
<path d="M137.5,194 H140.0 M137.5,191.5 V194" stroke="#333" stroke-width="0.2"/>
<path d="M72.0,282 H74.5 M74.5,282 V284.5" stroke="#333" stroke-width="0.2"/>
<path d="M137.5,282 H140.0 M137.5,282 V284.5" stroke="#333" stroke-width="0.2"/>
</svg>