<svg xmlns="http://www.w3.org/2000/svg" width="210mm" height="297mm" viewBox="0 0 210 297">
<rect width="100%" height="100%" fill="#fff"/>
<g transform="translate(10,22)">
 <rect x="0.25" y="0.25" width="15.5" height="15.5" rx="2"
       fill="#ffffff" stroke="#202020" stroke-width="0.5"/>
 <circle cx="8.0" cy="6.1" r="4.4" fill="#7a4a45" opacity="0.16"/>
 <text x="8.0" y="8.3" text-anchor="middle" font-family="DejaVu Sans"
       font-size="7" font-weight="700" fill="#7a4a45">S</text>
 <text x="8.0" y="13.6" text-anchor="middle" font-family="DejaVu Sans"
       font-size="2.0" font-weight="700" fill="#202020">Stängd väg</text>
</g>
<g transform="translate(35,22)">
 <rect x="0.25" y="0.25" width="15.5" height="15.5" rx="2"
       fill="#ffffff" stroke="#202020" stroke-width="0.5"/>
 <circle cx="8.0" cy="6.1" r="4.4" fill="#7a4a45" opacity="0.16"/>
 <text x="8.0" y="8.3" text-anchor="middle" font-family="DejaVu Sans"
       font-size="7" font-weight="700" fill="#7a4a45">S</text>
 <text x="8.0" y="13.6" text-anchor="middle" font-family="DejaVu Sans"
       font-size="2.0" font-weight="700" fill="#202020">Stängd väg</text>
</g>
<g transform="translate(60,22)">
 <rect x="0.25" y="0.25" width="15.5" height="15.5" rx="2"
       fill="#ffffff" stroke="#202020" stroke-width="0.5"/>
 <circle cx="8.0" cy="6.1" r="4.4" fill="#7a4a45" opacity="0.16"/>
 <text x="8.0" y="8.3" text-anchor="middle" font-family="DejaVu Sans"
       font-size="7" font-weight="700" fill="#7a4a45">S</text>
 <text x="8.0" y="13.6" text-anchor="middle" font-family="DejaVu Sans"
       font-size="2.0" font-weight="700" fill="#202020">Stängd väg</text>
</g>
<g transform="translate(85,22)">
 <rect x="0.25" y="0.25" width="15.5" height="15.5" rx="2"
       fill="#ffffff" stroke="#202020" stroke-width="0.5"/>
 <circle cx="8.0" cy="6.1" r="4.4" fill="#7a4a45" opacity="0.16"/>
 <text x="8.0" y="8.3" text-anchor="middle" font-family="DejaVu Sans"
       font-size="7" font-weight="700" fill="#7a4a45">S</text>
 <text x="8.0" y="13.6" text-anchor="middle" font-family="DejaVu Sans"
       font-size="2.0" font-weight="700" fill="#202020">Stängd väg</text>
</g>
<g transform="translate(110,22)">
 <rect x="0.25" y="0.25" width="15.5" height="15.5" rx="2"
       fill="#ffffff" stroke="#202020" stroke-width="0.5"/>
 <circle cx="8.0" cy="6.1" r="4.4" fill="#7a4a45" opacity="0.16"/>
 <text x="8.0" y="8.3" text-anchor="middle" font-family="DejaVu Sans"
       font-size="7" font-weight="700" fill="#7a4a45">S</text>
 <text x="8.0" y="13.6" text-anchor="middle" font-family="DejaVu Sans"
       font-size="2.0" font-weight="700" fill="#202020">Stängd väg</text>
</g>
<g transform="translate(135,22)">
 <rect x="0.25" y="0.25" width="15.5" height="15.5" rx="2"
       fill="#ffffff" stroke="#202020" stroke-width="0.5"/>
 <circle cx="8.0" cy="6.1" r="4.4" fill="#7a4a45" opacity="0.16"/>
 <text x="8.0" y="8.3" text-anchor="middle" font-family="DejaVu Sans"
       font-size="7" font-weight="700" fill="#7a4a45">S</text>
 <text x="8.0" y="13.6" text-anchor="middle" font-family="DejaVu Sans"
       font-size="2.0" font-weight="700" fill="#202020">Stängd väg</text>
</g>
<g transform="translate(160,22)">
 <rect x="0.25" y="0.25" width="15.5" height="15.5" rx="2"
       fill="#ffffff" stroke="#202020" stroke-width="0.5"/>
 <circle cx="8.0" cy="6.1" r="4.4" fill="#7a4a45" opacity="0.16"/>
 <text x="8.0" y="8.3" text-anchor="middle" font-family="DejaVu Sans"
       font-size="7" font-weight="700" fill="#7a4a45">S</text>
 <text x="8.0" y="13.6" text-anchor="middle" font-family="DejaVu Sans"
       font-size="2.0" font-weight="700" fill="#202020">Stängd väg</text>
</g>
<g transform="translate(185,22)">
 <rect x="0.25" y="0.25" width="15.5" height="15.5" rx="2"
       fill="#ffffff" stroke="#202020" stroke-width="0.5"/>
 <circle cx="8.0" cy="6.1" r="4.4" fill="#7a4a45" opacity="0.16"/>
 <text x="8.0" y="8.3" text-anchor="middle" font-family="DejaVu Sans"
       font-size="7" font-weight="700" fill="#7a4a45">S</text>
 <text x="8.0" y="13.6" text-anchor="middle" font-family="DejaVu Sans"
       font-size="2.0" font-weight="700" fill="#202020">Stängd väg</text>
</g>
<g transform="translate(10,49)">
 <rect x="0.25" y="0.25" width="15.5" height="15.5" rx="2"
       fill="#ffffff" stroke="#202020" stroke-width="0.5"/>
 <circle cx="8.0" cy="6.1" r="4.4" fill="#934f49" opacity="0.16"/>
 <text x="8.0" y="8.3" text-anchor="middle" font-family="DejaVu Sans"
       font-size="7" font-weight="700" fill="#934f49">X</text>
 <text x="8.0" y="13.6" text-anchor="middle" font-family="DejaVu Sans"
       font-size="2.0" font-weight="700" fill="#202020">Hinder</text>
</g>
<g transform="translate(35,49)">
 <rect x="0.25" y="0.25" width="15.5" height="15.5" rx="2"
       fill="#ffffff" stroke="#202020" stroke-width="0.5"/>
 <circle cx="8.0" cy="6.1" r="4.4" fill="#934f49" opacity="0.16"/>
 <text x="8.0" y="8.3" text-anchor="middle" font-family="DejaVu Sans"
       font-size="7" font-weight="700" fill="#934f49">X</text>
 <text x="8.0" y="13.6" text-anchor="middle" font-family="DejaVu Sans"
       font-size="2.0" font-weight="700" fill="#202020">Hinder</text>
</g>
<g transform="translate(60,49)">
 <rect x="0.25" y="0.25" width="15.5" height="15.5" rx="2"
       fill="#ffffff" stroke="#202020" stroke-width="0.5"/>
 <circle cx="8.0" cy="6.1" r="4.4" fill="#934f49" opacity="0.16"/>
 <text x="8.0" y="8.3" text-anchor="middle" font-family="DejaVu Sans"
       font-size="7" font-weight="700" fill="#934f49">X</text>
 <text x="8.0" y="13.6" text-anchor="middle" font-family="DejaVu Sans"
       font-size="2.0" font-weight="700" fill="#202020">Hinder</text>
</g>
<g transform="translate(85,49)">
 <rect x="0.25" y="0.25" width="15.5" height="15.5" rx="2"
       fill="#ffffff" stroke="#202020" stroke-width="0.5"/>
 <circle cx="8.0" cy="6.1" r="4.4" fill="#934f49" opacity="0.16"/>
 <text x="8.0" y="8.3" text-anchor="middle" font-family="DejaVu Sans"
       font-size="7" font-weight="700" fill="#934f49">X</text>
 <text x="8.0" y="13.6" text-anchor="middle" font-family="DejaVu Sans"
       font-size="2.0" font-weight="700" fill="#202020">Hinder</text>
</g>
<g transform="translate(110,49)">
 <rect x="0.25" y="0.25" width="15.5" height="15.5" rx="2"
       fill="#ffffff" stroke="#202020" stroke-width="0.5"/>
 <circle cx="8.0" cy="6.1" r="4.4" fill="#56785b" opacity="0.16"/>
 <text x="8.0" y="8.3" text-anchor="middle" font-family="DejaVu Sans"
       font-size="7" font-weight="700" fill="#56785b">Ö</text>
 <text x="8.0" y="13.6" text-anchor="middle" font-family="DejaVu Sans"
       font-size="2.0" font-weight="700" fill="#202020">Öppen väg</text>
</g>
<g transform="translate(135,49)">
 <rect x="0.25" y="0.25" width="15.5" height="15.5" rx="2"
       fill="#ffffff" stroke="#202020" stroke-width="0.5"/>
 <circle cx="8.0" cy="6.1" r="4.4" fill="#56785b" opacity="0.16"/>
 <text x="8.0" y="8.3" text-anchor="middle" font-family="DejaVu Sans"
       font-size="7" font-weight="700" fill="#56785b">Ö</text>
 <text x="8.0" y="13.6" text-anchor="middle" font-family="DejaVu Sans"
       font-size="2.0" font-weight="700" fill="#202020">Öppen väg</text>
</g>
<g transform="translate(160,49)">
 <rect x="0.25" y="0.25" width="15.5" height="15.5" rx="2"
       fill="#ffffff" stroke="#202020" stroke-width="0.5"/>
 <circle cx="8.0" cy="6.1" r="4.4" fill="#56785b" opacity="0.16"/>
 <text x="8.0" y="8.3" text-anchor="middle" font-family="DejaVu Sans"
       font-size="7" font-weight="700" fill="#56785b">Ö</text>
 <text x="8.0" y="13.6" text-anchor="middle" font-family="DejaVu Sans"
       font-size="2.0" font-weight="700" fill="#202020">Öppen väg</text>
</g>
<g transform="translate(185,49)">
 <rect x="0.25" y="0.25" width="15.5" height="15.5" rx="2"
       fill="#ffffff" stroke="#202020" stroke-width="0.5"/>
 <circle cx="8.0" cy="6.1" r="4.4" fill="#56785b" opacity="0.16"/>
 <text x="8.0" y="8.3" text-anchor="middle" font-family="DejaVu Sans"
       font-size="7" font-weight="700" fill="#56785b">Ö</text>
 <text x="8.0" y="13.6" text-anchor="middle" font-family="DejaVu Sans"
       font-size="2.0" font-weight="700" fill="#202020">Öppen väg</text>
</g>
<g transform="translate(10,76)">
 <rect x="0.25" y="0.25" width="15.5" height="15.5" rx="2"
       fill="#ffffff" stroke="#202020" stroke-width="0.5"/>
 <circle cx="8.0" cy="6.1" r="4.4" fill="#56785b" opacity="0.16"/>
 <text x="8.0" y="8.3" text-anchor="middle" font-family="DejaVu Sans"
       font-size="7" font-weight="700" fill="#56785b">Ö</text>
 <text x="8.0" y="13.6" text-anchor="middle" font-family="DejaVu Sans"
       font-size="2.0" font-weight="700" fill="#202020">Öppen väg</text>
</g>
<g transform="translate(35,76)">
 <rect x="0.25" y="0.25" width="15.5" height="15.5" rx="2"
       fill="#ffffff" stroke="#202020" stroke-width="0.5"/>
 <circle cx="8.0" cy="6.1" r="4.4" fill="#56785b" opacity="0.16"/>
 <text x="8.0" y="8.3" text-anchor="middle" font-family="DejaVu Sans"
       font-size="7" font-weight="700" fill="#56785b">Ö</text>
 <text x="8.0" y="13.6" text-anchor="middle" font-family="DejaVu Sans"
       font-size="2.0" font-weight="700" fill="#202020">Öppen väg</text>
</g>
<g transform="translate(60,76)">
 <rect x="0.25" y="0.25" width="15.5" height="15.5" rx="2"
       fill="#ffffff" stroke="#202020" stroke-width="0.5"/>
 <circle cx="8.0" cy="6.1" r="4.4" fill="#56785b" opacity="0.16"/>
 <text x="8.0" y="8.3" text-anchor="middle" font-family="DejaVu Sans"
       font-size="7" font-weight="700" fill="#56785b">Ö</text>
 <text x="8.0" y="13.6" text-anchor="middle" font-family="DejaVu Sans"
       font-size="2.0" font-weight="700" fill="#202020">Öppen väg</text>
</g>
<g transform="translate(85,76)">
 <rect x="0.25" y="0.25" width="15.5" height="15.5" rx="2"
       fill="#ffffff" stroke="#202020" stroke-width="0.5"/>
 <circle cx="8.0" cy="6.1" r="4.4" fill="#56785b" opacity="0.16"/>
 <text x="8.0" y="8.3" text-anchor="middle" font-family="DejaVu Sans"
       font-size="7" font-weight="700" fill="#56785b">Ö</text>
 <text x="8.0" y="13.6" text-anchor="middle" font-family="DejaVu Sans"
       font-size="2.0" font-weight="700" fill="#202020">Öppen väg</text>
</g>
<g transform="translate(110,76)">
 <rect x="0.25" y="0.25" width="15.5" height="15.5" rx="2"
       fill="#ffffff" stroke="#202020" stroke-width="0.5"/>
 <circle cx="8.0" cy="6.1" r="4.4" fill="#56785b" opacity="0.16"/>
 <text x="8.0" y="8.3" text-anchor="middle" font-family="DejaVu Sans"
       font-size="7" font-weight="700" fill="#56785b">Ö</text>
 <text x="8.0" y="13.6" text-anchor="middle" font-family="DejaVu Sans"
       font-size="2.0" font-weight="700" fill="#202020">Öppen väg</text>
</g>
<g transform="translate(135,76)">
 <rect x="0.25" y="0.25" width="15.5" height="15.5" rx="2"
       fill="#ffffff" stroke="#202020" stroke-width="0.5"/>
 <circle cx="8.0" cy="6.1" r="4.4" fill="#56785b" opacity="0.16"/>
 <text x="8.0" y="8.3" text-anchor="middle" font-family="DejaVu Sans"
       font-size="7" font-weight="700" fill="#56785b">Ö</text>
 <text x="8.0" y="13.6" text-anchor="middle" font-family="DejaVu Sans"
       font-size="2.0" font-weight="700" fill="#202020">Öppen väg</text>
</g>
<g transform="translate(160,76)">
 <rect x="0.25" y="0.25" width="15.5" height="15.5" rx="2"
       fill="#ffffff" stroke="#202020" stroke-width="0.5"/>
 <circle cx="8.0" cy="6.1" r="4.4" fill="#56785b" opacity="0.16"/>
 <text x="8.0" y="8.3" text-anchor="middle" font-family="DejaVu Sans"
       font-size="7" font-weight="700" fill="#56785b">Ö</text>
 <text x="8.0" y="13.6" text-anchor="middle" font-family="DejaVu Sans"
       font-size="2.0" font-weight="700" fill="#202020">Öppen väg</text>
</g>
<g transform="translate(185,76)">
 <rect x="0.25" y="0.25" width="15.5" height="15.5" rx="2"
       fill="#ffffff" stroke="#202020" stroke-width="0.5"/>
 <circle cx="8.0" cy="6.1" r="4.4" fill="#56785b" opacity="0.16"/>
 <text x="8.0" y="8.3" text-anchor="middle" font-family="DejaVu Sans"
       font-size="7" font-weight="700" fill="#56785b">Ö</text>
 <text x="8.0" y="13.6" text-anchor="middle" font-family="DejaVu Sans"
       font-size="2.0" font-weight="700" fill="#202020">Öppen väg</text>
</g>
<g transform="translate(10,103)">
 <rect x="0.25" y="0.25" width="15.5" height="15.5" rx="2"
       fill="#ffffff" stroke="#202020" stroke-width="0.5"/>
 <circle cx="8.0" cy="6.1" r="4.4" fill="#5d6f86" opacity="0.16"/>
 <text x="8.0" y="8.3" text-anchor="middle" font-family="DejaVu Sans"
       font-size="7" font-weight="700" fill="#5d6f86">!</text>
 <text x="8.0" y="13.6" text-anchor="middle" font-family="DejaVu Sans"
       font-size="2.0" font-weight="700" fill="#202020">Händelse</text>
</g>
<g transform="translate(35,103)">
 <rect x="0.25" y="0.25" width="15.5" height="15.5" rx="2"
       fill="#ffffff" stroke="#202020" stroke-width="0.5"/>
 <circle cx="8.0" cy="6.1" r="4.4" fill="#5d6f86" opacity="0.16"/>
 <text x="8.0" y="8.3" text-anchor="middle" font-family="DejaVu Sans"
       font-size="7" font-weight="700" fill="#5d6f86">!</text>
 <text x="8.0" y="13.6" text-anchor="middle" font-family="DejaVu Sans"
       font-size="2.0" font-weight="700" fill="#202020">Händelse</text>
</g>
<g transform="translate(60,103)">
 <rect x="0.25" y="0.25" width="15.5" height="15.5" rx="2"
       fill="#ffffff" stroke="#202020" stroke-width="0.5"/>
 <circle cx="8.0" cy="6.1" r="4.4" fill="#5d6f86" opacity="0.16"/>
 <text x="8.0" y="8.3" text-anchor="middle" font-family="DejaVu Sans"
       font-size="7" font-weight="700" fill="#5d6f86">!</text>
 <text x="8.0" y="13.6" text-anchor="middle" font-family="DejaVu Sans"
       font-size="2.0" font-weight="700" fill="#202020">Händelse</text>
</g>
<g transform="translate(85,103)">
 <rect x="0.25" y="0.25" width="15.5" height="15.5" rx="2"
       fill="#ffffff" stroke="#202020" stroke-width="0.5"/>
 <circle cx="8.0" cy="6.1" r="4.4" fill="#5d6f86" opacity="0.16"/>
 <text x="8.0" y="8.3" text-anchor="middle" font-family="DejaVu Sans"
       font-size="7" font-weight="700" fill="#5d6f86">!</text>
 <text x="8.0" y="13.6" text-anchor="middle" font-family="DejaVu Sans"
       font-size="2.0" font-weight="700" fill="#202020">Händelse</text>
</g>
<text x="10" y="118" font-family="DejaVu Sans" font-size="3.5">Dolda vägmarkörer läggs med baksidan upp på de D-vägar som scenariot anger.</text>
<text x="10" y="124" font-family="DejaVu Sans" font-size="3.5">Öppen/Stängd väg-markörer används för att ändra en tryckt vägstatus.</text>
</svg>